<?xml version="1.0" encoding="UTF-8" standalone="no"?>
<svg
   version="1.1"
   x="0px"
   y="0px"
   viewBox="0 0 82.81105 97.436965"
   enable-background="new 0 0 100 100"
   xml:space="preserve"
   id="svg3"
   width="82.81105"
   height="97.436966"
   xmlns="http://www.w3.org/2000/svg"
   xmlns:svg="http://www.w3.org/2000/svg"><defs
     id="defs3" /><g
     id="g3"
     transform="translate(-0.35686118,-0.73052187)"><path
       d="M 74.941763,89.479808 C 72.37777,89.155096 69.706943,87.315064 67.677115,85.799744 62.655961,82.119679 46.096836,66.858236 43.532843,81.037308 40.862016,66.858236 23.982392,82.119679 18.961238,85.799744 17.038243,87.206827 14.153751,89.155096 11.589757,89.479808 8.8120974,89.804519 5.2866064,87.964487 3.3636112,83.635 c 0,0.216474 0,0.432949 0,0.649423 0,2.814167 1.1751637,5.520096 2.9913258,7.68484 4.807488,5.736571 13.140467,7.360129 20.084616,5.411859 3.632324,-0.974134 6.944149,-2.814167 9.828642,-5.087147 0.854664,-0.649423 7.264648,-6.92718 7.264648,-7.793078 0,0.865898 6.089484,7.143655 6.944149,7.793078 2.991326,2.27298 5.875818,4.113013 9.508143,5.087147 6.944149,1.94827 15.277128,0.324712 20.191448,-5.411859 1.816162,-2.164744 2.991326,-4.870673 2.991326,-7.68484 0,-0.216474 0,-0.432949 0,-0.649423 -2.029828,4.329487 -5.555319,6.061282 -8.226146,5.844808 z"
       id="path1"
       style="fill:#ffffff;stroke-width:1.07533" /><path
       d="m 21.632065,47.808492 c 0,7.251891 -0.213666,14.720257 0.106833,23.487469 11.85847,-7.793077 31.622587,-7.901314 44.228888,-0.865897 V 48.999101 C 90.218891,46.617883 85.838736,11.873747 62.97646,16.203234 57.207475,-3.2794586 30.499209,-4.686542 22.700396,13.822016 -1.9780419,5.4877533 -11.379351,46.184934 21.632065,47.808492 Z"
       id="path2"
       style="fill:#ffffff;stroke-width:1.07533" /></g></svg>
